<svg version="1.0" xmlns="http://www.w3.org/2000/svg" viewBox="0 0 512.000000 512.000000"
 preserveAspectRatio="xMidYMid meet">

<g transform="translate(0.000000,512.000000) scale(0.100000,-0.100000)"
fill="#000000" stroke="none">
<path d="M2550 3946 l-2155 -903 -3 -1387 c-2 -1106 0 -1386 10 -1386 7 0 983
407 2168 903 l2155 903 3 1387 c2 1107 0 1387 -10 1387 -7 -1 -983 -407 -2168
-904z m1660 -698 l0 -833 -1643 -688 c-903 -378 -1645 -687 -1649 -687 -5 0
-8 375 -8 833 l0 832 587 245 c323 135 1059 444 1637 686 578 243 1057 442
1064 443 9 1 12 -172 12 -831z"/>
</g>
</svg>
